<mxfile host="app.diagrams.net" modified="2023-06-22T16:22:44.515Z" agent="Mozilla/5.0 (Macintosh; Intel Mac OS X 10.15; rv:109.0) Gecko/20100101 Firefox/114.0" etag="F4tTfcwJeBs69dOO7ZI4" version="21.3.2" type="github">
  <diagram name="Page-1" id="7e0a89b8-554c-2b80-1dc8-d5c74ca68de4">
    <mxGraphModel dx="933" dy="1474" grid="1" gridSize="10" guides="1" tooltips="1" connect="1" arrows="1" fold="1" page="1" pageScale="1" pageWidth="1100" pageHeight="850" background="none" math="0" shadow="0">
      <root>
        <mxCell id="0" />
        <mxCell id="1" parent="0" />
        <mxCell id="GdU1qMy6sk86b93hcqxC-2" style="edgeStyle=orthogonalEdgeStyle;rounded=0;html=1;exitX=0;exitY=0.5;exitPerimeter=0;labelBackgroundColor=none;startArrow=none;startFill=0;startSize=5;endArrow=none;endFill=0;endSize=5;jettySize=auto;orthogonalLoop=1;strokeWidth=1;fontFamily=Verdana;fontSize=12" edge="1" parent="1">
          <mxGeometry relative="1" as="geometry">
            <Array as="points">
              <mxPoint x="122" y="300" />
            </Array>
            <mxPoint x="162" y="300" as="sourcePoint" />
            <mxPoint x="122" y="234" as="targetPoint" />
          </mxGeometry>
        </mxCell>
        <mxCell id="GdU1qMy6sk86b93hcqxC-4" style="edgeStyle=orthogonalEdgeStyle;rounded=0;html=1;exitX=1;exitY=0.5;exitPerimeter=0;labelBackgroundColor=none;startArrow=none;startFill=0;startSize=5;endArrow=none;endFill=0;endSize=5;jettySize=auto;orthogonalLoop=1;strokeWidth=1;fontFamily=Verdana;fontSize=12" edge="1" parent="1" source="GdU1qMy6sk86b93hcqxC-6">
          <mxGeometry relative="1" as="geometry">
            <mxPoint x="160" y="300" as="targetPoint" />
          </mxGeometry>
        </mxCell>
        <mxCell id="GdU1qMy6sk86b93hcqxC-6" value="220 V" style="verticalLabelPosition=bottom;shadow=0;dashed=0;align=center;fillColor=default;html=1;verticalAlign=top;strokeWidth=1;shape=mxgraph.electrical.miscellaneous.monocell_battery;rounded=1;comic=0;labelBackgroundColor=none;fontFamily=Verdana;fontSize=12;flipH=1;" vertex="1" parent="1">
          <mxGeometry x="442" y="270" width="100" height="60" as="geometry" />
        </mxCell>
        <mxCell id="GdU1qMy6sk86b93hcqxC-14" style="edgeStyle=orthogonalEdgeStyle;rounded=0;orthogonalLoop=1;jettySize=auto;html=1;entryX=0.5;entryY=1;entryDx=0;entryDy=0;entryPerimeter=0;" edge="1" parent="1" source="GdU1qMy6sk86b93hcqxC-9" target="GdU1qMy6sk86b93hcqxC-12">
          <mxGeometry relative="1" as="geometry" />
        </mxCell>
        <mxCell id="GdU1qMy6sk86b93hcqxC-9" value="" style="pointerEvents=1;verticalLabelPosition=bottom;shadow=0;dashed=0;align=center;html=1;verticalAlign=top;shape=mxgraph.electrical.signal_sources.source;aspect=fixed;points=[[0.5,0,0],[1,0.5,0],[0.5,1,0],[0,0.5,0]];elSignalType=dc3;" vertex="1" parent="1">
          <mxGeometry x="42" y="70" width="160" height="160" as="geometry" />
        </mxCell>
        <mxCell id="GdU1qMy6sk86b93hcqxC-10" value="&lt;div&gt;VOC: 0.576V&lt;br&gt;&lt;/div&gt;&lt;div&gt;ISC: 1.4A&lt;/div&gt;&lt;div&gt;&lt;br&gt;&lt;/div&gt;&lt;div&gt;&lt;br&gt;&lt;/div&gt;" style="whiteSpace=wrap;html=1;aspect=fixed;" vertex="1" parent="1">
          <mxGeometry x="67" y="95" width="110" height="110" as="geometry" />
        </mxCell>
        <mxCell id="GdU1qMy6sk86b93hcqxC-17" style="edgeStyle=orthogonalEdgeStyle;rounded=0;orthogonalLoop=1;jettySize=auto;html=1;exitX=0.5;exitY=0;exitDx=0;exitDy=0;exitPerimeter=0;entryX=0.5;entryY=1;entryDx=0;entryDy=0;entryPerimeter=0;" edge="1" parent="1" source="GdU1qMy6sk86b93hcqxC-12" target="GdU1qMy6sk86b93hcqxC-15">
          <mxGeometry relative="1" as="geometry">
            <mxPoint x="122.45454545454527" y="-200" as="targetPoint" />
          </mxGeometry>
        </mxCell>
        <mxCell id="GdU1qMy6sk86b93hcqxC-12" value="v" style="pointerEvents=1;verticalLabelPosition=bottom;shadow=0;dashed=0;align=center;html=1;verticalAlign=top;shape=mxgraph.electrical.signal_sources.source;aspect=fixed;points=[[0.5,0,0],[1,0.5,0],[0.5,1,0],[0,0.5,0]];elSignalType=dc3;" vertex="1" parent="1">
          <mxGeometry x="42" y="-150" width="160" height="160" as="geometry" />
        </mxCell>
        <mxCell id="GdU1qMy6sk86b93hcqxC-13" value="&lt;div&gt;VOC: 0.56V&lt;br&gt;&lt;/div&gt;&lt;div&gt;ISC: 1.52A&lt;br&gt;&lt;/div&gt;&lt;div&gt;&lt;br&gt;&lt;/div&gt;" style="whiteSpace=wrap;html=1;aspect=fixed;" vertex="1" parent="1">
          <mxGeometry x="67" y="-125" width="110" height="110" as="geometry" />
        </mxCell>
        <mxCell id="GdU1qMy6sk86b93hcqxC-21" style="edgeStyle=orthogonalEdgeStyle;rounded=0;orthogonalLoop=1;jettySize=auto;html=1;" edge="1" parent="1" source="GdU1qMy6sk86b93hcqxC-15">
          <mxGeometry relative="1" as="geometry">
            <mxPoint x="510" y="-290" as="targetPoint" />
          </mxGeometry>
        </mxCell>
        <mxCell id="GdU1qMy6sk86b93hcqxC-15" value="" style="pointerEvents=1;verticalLabelPosition=bottom;shadow=0;dashed=0;align=center;html=1;verticalAlign=top;shape=mxgraph.electrical.signal_sources.source;aspect=fixed;points=[[0.5,0,0],[1,0.5,0],[0.5,1,0],[0,0.5,0]];elSignalType=dc3;" vertex="1" parent="1">
          <mxGeometry x="42" y="-370" width="160" height="160" as="geometry" />
        </mxCell>
        <mxCell id="GdU1qMy6sk86b93hcqxC-16" value="... n = 12" style="whiteSpace=wrap;html=1;aspect=fixed;" vertex="1" parent="1">
          <mxGeometry x="67" y="-345" width="110" height="110" as="geometry" />
        </mxCell>
        <mxCell id="GdU1qMy6sk86b93hcqxC-25" style="edgeStyle=orthogonalEdgeStyle;rounded=0;orthogonalLoop=1;jettySize=auto;html=1;" edge="1" parent="1" source="GdU1qMy6sk86b93hcqxC-23">
          <mxGeometry relative="1" as="geometry">
            <mxPoint x="670" y="-70" as="targetPoint" />
          </mxGeometry>
        </mxCell>
        <mxCell id="GdU1qMy6sk86b93hcqxC-23" value="" style="verticalLabelPosition=bottom;shadow=0;dashed=0;align=center;html=1;verticalAlign=top;strokeWidth=1;shape=mxgraph.electrical.resistors.resistor_2;rounded=1;comic=0;labelBackgroundColor=none;fontFamily=Verdana;fontSize=12;rotation=0;" vertex="1" parent="1">
          <mxGeometry x="510" y="-300" width="120" height="20" as="geometry" />
        </mxCell>
        <mxCell id="GdU1qMy6sk86b93hcqxC-26" value="&lt;div&gt;6.7V / 12 = 0.55V&lt;/div&gt;&lt;div&gt;~3.5A&lt;/div&gt;&lt;div&gt;R ~1.914Î©&lt;br&gt;&lt;/div&gt;" style="text;whiteSpace=wrap;html=1;" vertex="1" parent="1">
          <mxGeometry x="740" y="-70" width="120" height="40" as="geometry" />
        </mxCell>
        <mxCell id="GdU1qMy6sk86b93hcqxC-28" style="edgeStyle=orthogonalEdgeStyle;rounded=0;orthogonalLoop=1;jettySize=auto;html=1;" edge="1" parent="1" source="GdU1qMy6sk86b93hcqxC-27">
          <mxGeometry relative="1" as="geometry">
            <mxPoint x="670" y="130" as="targetPoint" />
          </mxGeometry>
        </mxCell>
        <mxCell id="GdU1qMy6sk86b93hcqxC-37" style="edgeStyle=orthogonalEdgeStyle;rounded=0;orthogonalLoop=1;jettySize=auto;html=1;entryX=0;entryY=0.5;entryDx=0;entryDy=0;entryPerimeter=0;" edge="1" parent="1" source="GdU1qMy6sk86b93hcqxC-27" target="GdU1qMy6sk86b93hcqxC-6">
          <mxGeometry relative="1" as="geometry" />
        </mxCell>
        <mxCell id="GdU1qMy6sk86b93hcqxC-27" value="MPPT" style="whiteSpace=wrap;html=1;aspect=fixed;" vertex="1" parent="1">
          <mxGeometry x="630" y="-70" width="90" height="90" as="geometry" />
        </mxCell>
        <mxCell id="GdU1qMy6sk86b93hcqxC-29" value="25V" style="text;html=1;align=center;verticalAlign=middle;resizable=0;points=[];autosize=1;strokeColor=none;fillColor=none;" vertex="1" parent="1">
          <mxGeometry x="680" y="80" width="40" height="30" as="geometry" />
        </mxCell>
        <mxCell id="GdU1qMy6sk86b93hcqxC-36" style="edgeStyle=orthogonalEdgeStyle;rounded=0;orthogonalLoop=1;jettySize=auto;html=1;entryX=1;entryY=1;entryDx=0;entryDy=0;" edge="1" parent="1" source="GdU1qMy6sk86b93hcqxC-30" target="GdU1qMy6sk86b93hcqxC-27">
          <mxGeometry relative="1" as="geometry" />
        </mxCell>
        <mxCell id="GdU1qMy6sk86b93hcqxC-30" value="" style="html=1;verticalLabelPosition=bottom;align=center;labelBackgroundColor=#ffffff;verticalAlign=top;strokeWidth=2;strokeColor=#0080F0;shadow=0;dashed=0;shape=mxgraph.ios7.icons.battery;rotation=90;" vertex="1" parent="1">
          <mxGeometry x="625.63" y="155.63" width="88.75" height="42" as="geometry" />
        </mxCell>
        <mxCell id="GdU1qMy6sk86b93hcqxC-31" value="6S Bat" style="text;html=1;align=center;verticalAlign=middle;resizable=0;points=[];autosize=1;strokeColor=none;fillColor=none;" vertex="1" parent="1">
          <mxGeometry x="580" y="155.63" width="60" height="30" as="geometry" />
        </mxCell>
        <mxCell id="GdU1qMy6sk86b93hcqxC-41" value="" style="pointerEvents=1;verticalLabelPosition=bottom;shadow=0;dashed=0;align=center;html=1;verticalAlign=top;shape=mxgraph.electrical.signal_sources.source;aspect=fixed;points=[[0.5,0,0],[1,0.5,0],[0.5,1,0],[0,0.5,0]];elSignalType=dc3;" vertex="1" parent="1">
          <mxGeometry x="310" y="-130" width="160" height="160" as="geometry" />
        </mxCell>
        <mxCell id="GdU1qMy6sk86b93hcqxC-42" value="&lt;div&gt;Exected Specs:&lt;br&gt;&lt;/div&gt;&lt;div&gt;VOC: 0.724&lt;br&gt;&lt;/div&gt;&lt;div&gt;ISC: 1.4A&lt;/div&gt;&lt;div&gt;Pmpp 3.72W&lt;br&gt;&lt;/div&gt;&lt;div&gt;&lt;br&gt;&lt;/div&gt;&lt;div&gt;&lt;br&gt;&lt;/div&gt;" style="whiteSpace=wrap;html=1;aspect=fixed;" vertex="1" parent="1">
          <mxGeometry x="335" y="-105" width="110" height="110" as="geometry" />
        </mxCell>
        <mxCell id="GdU1qMy6sk86b93hcqxC-43" value="Cable" style="text;html=1;align=center;verticalAlign=middle;resizable=0;points=[];autosize=1;strokeColor=none;fillColor=none;" vertex="1" parent="1">
          <mxGeometry x="545" y="-272" width="50" height="30" as="geometry" />
        </mxCell>
      </root>
    </mxGraphModel>
  </diagram>
</mxfile>
